# xmcd
#
# Track frame offsets:
#	150
#	22360
#	76597
#	99627
#	130755
#	153192
#	169680
#	203280
#	227500
#	244320
#	266045
#	282995
#	300482
#	319002
#
# Disc length: 4578 seconds
#
# Revision: 0
# Processed by: cddbd v1.5.2PL0 Copyright (c) Steve Scherf et al.
# Submitted via: dBpowerAMP V4.0
#
DISCID=ad11e00e
DTITLE=Varios - AURORA FM
DYEAR=1997
DGENRE=Dance
TTITLE0=LA LOCURA DE HOY MIX CUMBIERO
TTITLE1=RUMBAMANIA-MIX
TTITLE2=MACARENA-LOS DEL MAR
TTITLE3=MEGAMIX-CORONA
TTITLE4=LA DANZA DE LOS 40 LIMONES
TTITLE5=QUIERO VERTE-LOS SOBRAOS
TTITLE6=DISCO SAMBA-MIX TWO MAN SOUND
TTITLE7=U SHOULD BE DANCING
TTITLE8=SE ME CASA RUBEN EL REY
TTITLE9=MEXICAN HAT DANCE 97 -ARRIBA BROTHERS
TTITLE10=LOS GRANDES DEL AYER-IVAN Y SUS BAM BAD
TTITLE11=AMO-PACOR DE MIS AMORES
TTITLE12=MANA MANA-RUBEN EL REY
TTITLE13=DE PUNTA A PUNTA-IVAN Y SUS BAND BAND
EXTD=
EXTT0=
EXTT1=
EXTT2=
EXTT3=
EXTT4=
EXTT5=
EXTT6=
EXTT7=
EXTT8=
EXTT9=
EXTT10=
EXTT11=
EXTT12=
EXTT13=
PLAYORDER=
